# xmcd
# 
# Track frame offsets:
#     150
#     22177
#     41772
#     68497
#     90500
# 
# Disc length: 1466
# 
# Revision: 4
# Processed by: cddbd v1.5.2PL0 Copyright (c) Steve Scherf et al.
# Submitted via: BonkEnc v1.0rc1
# 
DISCID=3805b805
DTITLE=浜崎あゆみ - ｔａｌｋｉｎ' 2 myself
DYEAR=2007
DGENRE=JPop
TTITLE0=ｔａｌｋｉｎ' 2 myself "Original mix"
TTITLE1=decision "Original mix"
TTITLE2=fated "Orchestra version"
TTITLE3=taｌkin' 2 myself "Original mix -Instrumental-"
TTITLE4=decision "Original mix -Instrumental-"
EXTD=YEAR: 2007
EXTT0=
EXTT1=
EXTT2=
EXTT3=
EXTT4=
PLAYORDER=
